HIERARCHY
ROOT hip
{
  OFFSET 0.0 0.0 0.0
  CHANNELS 6 Xposition Yposition Zposition Zrotation Yrotation Xrotation
  JOINT torso
  {
    OFFSET 0.0 0.0 0.0
    CHANNELS 3 Zrotation Xrotation Yrotation
    JOINT neck
    {
      OFFSET -31.42098999999993 328.8025209999999 74.3554680000002
      CHANNELS 3 Zrotation Xrotation Yrotation
      JOINT head
      {
        OFFSET 3.3519900000001144 303.81732099999994 206.53942900000015
        CHANNELS 3 Zrotation Xrotation Yrotation
        End Site
        {
          OFFSET 0.0 0.0 0.0
        }
      }
    }
    JOINT left_collar
    {
      OFFSET -31.42098999999993 328.8025209999999 74.3554680000002
      CHANNELS 3 Zrotation Xrotation Yrotation
      JOINT left_upper_arm
      {
        OFFSET -124.490479 -8.162841999999841 8.226441000000023
        CHANNELS 3 Zrotation Xrotation Yrotation
        JOINT left_forearm
        {
          OFFSET -253.595764 -1.5758060000000569 105.0729980000001
          CHANNELS 3 Zrotation Xrotation Yrotation
          JOINT left_hand
          {
            OFFSET -269.48803699999996 0.1478270000000066 -55.346191999999974
            CHANNELS 3 Zrotation Xrotation Yrotation
            End Site
            {
              OFFSET 0.0 0.0 0.0
            }
          }
        }
      }
    }
    JOINT right_collar
    {
      OFFSET -31.42098999999993 328.8025209999999 74.3554680000002
      CHANNELS 3 Zrotation Xrotation Yrotation
      JOINT right_upper_arm
      {
        OFFSET 162.02484099999998 0.46441600000002836 2.2303470000001653
        CHANNELS 3 Zrotation Xrotation Yrotation
        JOINT right_forearm
        {
          OFFSET 240.01246700000004 -25.835875999999985 121.34179699999959
          CHANNELS 3 Zrotation Xrotation Yrotation
          JOINT right_hand
          {
            OFFSET 252.48539699999992 18.910399999999868 -67.53466800000001
            CHANNELS 3 Zrotation Xrotation Yrotation
            End Site
            {
              OFFSET 0.0 0.0 0.0
            }
          }
        }
      }
    }
  }
}
MOTION
Frames: 18
Frame Time: 0.01
-181.24182366012835 266.49971059298815 1445.2968434679913 2.8443299078270483 -4.47082460479371 -25.531109636487134 0.2176197723013849 5.930382715436778 0.5356526974850997 -4.239422249102992 -13.831618414112128 3.280964193657761 0.0 0.0 0.0 0.907171946447338 0.2849609549999537 -3.0523989700468426 55.847790935100385 14.36180693157462 18.15693888888523 38.41461617684318 2.8836145653502756 -31.525500844898854 0.0 0.0 0.0 0.593395264859188 -0.055159370053544286 5.831265658397234 -35.4754741650205 4.218487270157055 -31.578422086178602 -59.273882573042634 4.878003838019614 44.323546322673394 0.0 0.0 0.0
-181.36241502143795 266.47692996834064 1445.224838301422 2.8479170855883282 -4.4690341414556265 -25.52441759166683 0.22046771613811483 5.917024484355988 0.5338158031189473 -4.234810624575167 -13.824045603761205 3.2773440687608058 0.0 0.0 0.0 0.908406608511058 0.2854902658955405 -3.05800729787212 55.83735585561339 14.361550187389204 18.151741993259794 38.42408315082434 2.89233328845304 -31.54824127607028 0.0 0.0 0.0 0.6007175907888929 -0.05550379652172899 5.815340169494842 -35.48119552050004 4.220479943944347 -31.576799710734488 -59.23176643867946 4.857806573303332 44.29564703330715 0.0 0.0 0.0
-181.4844676407747 266.45401682055274 1445.150663374462 2.8515257021591163 -4.467295056032283 -25.517803732375043 0.22326662876864642 5.903674388450787 0.5319877938903447 -4.230140181186504 -13.816135970248068 3.273671628760779 0.0 0.0 0.0 0.9097216487226668 0.28602115963527 -3.0635339524807415 55.826885442872026 14.361036393399358 18.146984466471924 38.43395349853731 2.90134795223318 -31.571720922537107 0.0 0.0 0.0 0.6079664223101191 -0.05584093913996035 5.79935316052707 -35.48636358408251 4.222348139565311 -31.575177592458505 -59.18992867995639 4.8377735656029905 44.26793710910595 0.0 0.0 0.0
-181.60852075849598 266.43096760896555 1445.0731083754001 2.8552672300299546 -4.465765312760619 -25.51137547533628 0.22597490655914237 5.8905223368641035 0.5301950182805993 -4.225489446743533 -13.807810795650102 3.2700029790706644 0.0 0.0 0.0 0.9111222970889968 0.2865441337585512 -3.068843644605167 55.81647177804058 14.360325921115782 18.142608422432804 38.444248115430405 2.9106274428377583 -31.595844420579432 0.0 0.0 0.0 0.6150160174782145 -0.05616390180454069 5.783446540023335 -35.49091053802881 4.224080018420061 -31.573547714477183 -59.147990971820064 4.817888909149915 44.24050619334782 0.0 0.0 0.0
-181.73520185177085 266.4077820630169 1444.9909155499872 2.859254385197755 -4.464598739561674 -25.50524892263059 0.22855672584299255 5.877747879242117 0.5284617997272326 -4.220942016157193 -13.798985697453354 3.266397822271619 0.0 0.0 0.0 0.91261166954673 0.2870501700658585 -3.073810396384542 55.8062149966296 14.359482225889314 18.138554791625204 38.45497366645829 2.9201330725484147 -31.620498120122353 0.0 0.0 0.0 0.6217465015844141 -0.05646634415874296 5.76777117051606 -35.49480674154995 4.225669592993724 -31.571908383559464 -59.1055689256165 4.7981290639149385 44.21342941193847 0.0 0.0 0.0
-181.86520313002706 266.38446681470896 1444.9028180191872 2.86359761509391 -4.463940196162742 -25.499547772507174 0.23098373991503235 5.865515567149849 0.526809666502548 -4.216585787097269 -13.789574101673685 3.2629189822566356 0.0 0.0 0.0 0.9141900237616201 0.2875309161029244 -3.0783209474039523 55.7962224014031 14.35857090732694 18.13476451710783 38.46611940874228 2.9298173577138784 -31.645547434040402 0.0 0.0 0.0 0.6280469192810243 -0.05674265902991328 5.752485476074112 -35.49806588074393 4.227117425510372 -31.57026530078125 -59.06229048717984 4.778465951840981 44.18676781209409 0.0 0.0 0.0
-181.99925710291046 266.36103821589745 1444.8075783589659 2.8684021286073196 -4.463921113000895 -25.494401774670354 0.23323623076506653 5.853970676390616 0.5252567122062789 -4.212511989737989 -13.779490849053971 3.2596317784760855 0.0 0.0 0.0 0.9158541116365475 0.2879788375538244 -3.0822776408574923 55.78660737060948 14.357659243499148 18.131178794306088 38.47765418792387 2.9396230226214084 -31.67083481771128 0.0 0.0 0.0 0.6338179720831416 -0.056988119198405934 5.737753527736851 -35.500748808098166 4.228431289770486 -31.568632038397556 -59.0178111618605 4.758869850128949 44.16056948152912 0.0 0.0 0.0
-182.13811236029088 266.33752410096827 1444.7040259516366 2.873765615314273 -4.4646555696993255 -25.489944723953904 0.23530362743796893 5.84323541676407 0.523817116230089 -4.208813998731671 -13.768655804171404 3.256603238117865 0.0 0.0 0.0 0.9175966880604527 0.28838734078001316 -3.0856007020099407 55.77748802208035 14.356816224557557 18.12773828640521 38.48952375472705 2.9494823190700727 -31.69617859652047 0.0 0.0 0.0 0.6389743299241459 -0.05719898650433614 5.723742542775974 -35.50296581803829 4.229626792637636 -31.567029799181192 -58.97182525285186 4.739311891063598 44.13487119689931 0.0 0.0 0.0
-182.2825105911094 266.31396433397737 1444.5910915537536 2.8797767446131903 -4.466237074275921 -25.486312022837293 0.23718435722804182 5.833405780607527 0.5225008464246628 -4.205585940659969 -13.756997368020219 3.2539011536068725 0.0 0.0 0.0 0.9194062302393744 0.28875086584662585 -3.0882298429708754 55.76898557602261 14.356113057183723 18.124381334640397 38.50164858011252 2.959316739410352 -31.721372813727896 0.0 0.0 0.0 0.6434464105768694 -0.057372577296856214 5.710619758985975 -35.50487714672009 4.230727947726306 -31.565486364603906 -58.924072707757595 4.719766010641897 44.109700383897625 0.0 0.0 0.0
-182.43316567914385 266.2904100788575 1444.4678375291808 2.88651447752669 -4.468736183181875 -25.48363788224117 0.2388850532248245 5.824549194386334 0.521313557182941 -4.202921136720958 -13.744455824752718 3.251593013366354 0.0 0.0 0.0 0.9212669035403491 0.2890649495970374 -3.090125141355325 55.761222358093576 14.35562406151191 18.121041271605787 38.51392237183873 2.969037186254557 -31.746188220020965 0.0 0.0 0.0 0.6471815389032377 -0.05750728018787182 5.698548690634025 -35.506691538636865 4.231767679523593 -31.564034198988765 -58.87434159106577 4.700210250743548 44.0850771644164 0.0 0.0 0.0
-182.59074545476992 266.26692184856347 1444.3334822929933 2.894048168095038 -4.47219906393277 -25.482052268772083 0.24041919765920713 5.8167031295942815 0.5202566851558073 -4.2009104467363985 -13.73098647596089 3.249744853984158 0.0 0.0 0.0 0.923158779488997 0.289326255640786 -3.0912671435202492 55.75431939935163 14.35542784268933 18.117643025161673 38.5262115078172 2.978544644617876 -31.770374469755858 0.0 0.0 0.0 0.6501444221606583 -0.05760252445744232 5.687684834495729 -35.508662783762055 4.232788212723866 -31.562707762395323 -58.82246661151401 4.6806274063772575 44.06101631564201 0.0 0.0 0.0
-182.75585639108834 266.24356650765793 1444.187417721877 2.902438379046662 -4.476647048071692 -25.481677740671106 0.24180532983871322 5.809874796076953 0.5193277324036668 -4.199640602854123 -13.716562525874952 3.248420098764434 0.0 0.0 0.0 0.9250582772776981 0.289532564875355 -3.0916561440574095 55.7483936184141 14.35560859186817 18.114099265891582 38.538355594018554 2.9877313825754266 -31.793663531764004 0.0 0.0 0.0 0.6523169036041357 -0.05765869985916049 5.678170962338876 -35.511084194792055 4.233841276282904 -31.561540177784124 -58.76832451682404 4.6610051096882925 44.037529054469275 0.0 0.0 0.0
-182.92903128678526 266.22041349528223 1444.0292186139313 2.9117382899743562 -4.482077157090364 -25.482626337805826 0.24306498068388444 5.804041980561479 0.5185207145140995 -4.199192630298779 -13.701177674148306 3.2476784541345456 0.0 0.0 0.0 0.926938774399278 0.28968271881647406 -3.091310608989818 55.74355461034509 14.356257353833712 18.11030640458 38.5501693180504 2.996482686635688 -31.815774273196034 0.0 0.0 0.0 0.6536969885770398 -0.05767703109780635 5.670132196971795 -35.51428106818614 4.234988033572594 -31.560559479254643 -58.711827485356665 4.641335537983906 44.014624663342104 0.0 0.0 0.0
-183.11071985488138 266.19753057972736 1443.8586437120655 2.9219955393769412 -4.488463512421294 -25.484996696411415 0.24422050407206855 5.7991550046781635 0.517826740629187 -4.199640439109417 -13.684848347920912 3.2475749247500865 0.0 0.0 0.0 0.928771325149709 0.28977651090569095 -3.0902647589024523 55.7399011107967 14.357473085878162 18.1061407931726 38.56144569932 3.004679121090352 -31.836418143928324 0.0 0.0 0.0 0.6542971827251177 -0.05765941325116354 5.663671110738523 -35.51860126175882 4.236298646411807 -31.559784724239172 -58.65291581881787 4.621614997338656 43.992312058974264 0.0 0.0 0.0
-183.3012821543833 266.17497945303404 1443.6756283084621 2.933254318593646 -4.495759469634788 -25.488871544081338 0.2452929588924168 5.795139667359312 0.5172346841048655 -4.201049636443503 -13.667615466130515 3.248158981597312 0.0 0.0 0.0 0.9305254380634866 0.28981452867711416 -3.0885654171370853 55.73751724531778 14.35936332101623 18.101455525942708 38.571960737410194 3.0121992889797244 -31.8553058827155 0.0 0.0 0.0 0.6541422394843441 -0.05760821774493728 5.658863102239489 -35.524404127077396 4.237851396054633 -31.559222273841534 -58.59155120468031 4.601843642016619 43.97060144305737 0.0 0.0 0.0
-183.50098489766302 266.1528114446451 1443.4802689619441 2.9455575290149056 -4.5039002589656745 -25.494315698246172 0.2463001642497933 5.7919009292977774 0.5167318973388557 -4.203476566151008 -13.649545589901127 3.249473884497058 0.0 0.0 0.0 0.9321698842028164 0.28979796025334353 -3.0862683443407364 55.736468708788166 14.362044238371201 18.096078274603943 38.58147934845184 3.018923064480104 -31.872155176347388 0.0 0.0 0.0 0.6532664704458295 -0.05752608140060769 5.655752300730395 -35.532048144956256 4.239731317351404 -31.55886252789787 -58.52771158093339 4.582025540088247 43.949506153131864 0.0 0.0 0.0
-183.71000074239956 266.13106359642177 1443.2728012994378 2.958948825594984 -4.512805884383784 -25.50137464979538 0.24725501352084076 5.789327025053872 0.5163049236743485 -4.2069675445120165 -13.630731291447947 3.2515561317121975 0.0 0.0 0.0 0.9336735248513753 0.28972838860687616 -3.083434393038234 55.73679904861688 14.365639941056074 18.089810610041898 38.589762379344265 3.0247352562340835 -31.886699205630368 0.0 0.0 0.0 0.6517108123134334 -0.057415692752268 5.654348225021951 -35.54187770415243 4.242028345057697 -31.558677351369163 -58.46138828697287 4.5621692085439935 43.92904476699812 0.0 0.0 0.0
-183.92841066537247 266.10975530488815 1443.0535721661743 2.9734743973971383 -4.5223840408584595 -25.510073770329733 0.24816409839238557 5.787293675235707 0.5159401642422717 -4.2115582371825715 -13.611290583884566 3.2544349918011184 0.0 0.0 0.0 0.9350061532931458 0.28960760305985167 -3.0801258880997477 55.738526245164685 14.37028075864151 18.082429242126512 38.59657442154401 3.0295296412223394 -31.898695981178594 0.0 0.0 0.0 0.6495198591012843 -0.05727958989485642 5.654623393196653 -35.55420951813532 4.244835011968579 -31.55861836304205 -58.39258581933096 4.542288644654439 43.909243431543686 0.0 0.0 0.0
